<?xml version="1.0" encoding="UTF-8"?>
<svg width="24px" height="24px" viewBox="0 0 24 24" version="1.1" xmlns="http://www.w3.org/2000/svg" xmlns:xlink="http://www.w3.org/1999/xlink">
    <title>可视化</title>
    <g id="页面-1" stroke="none" stroke-width="1" fill="none" fill-rule="evenodd">
        <g id="实时态势" transform="translate(-1780, -12)" fill="#FFFFFF" fill-rule="nonzero">
            <g id="可视化" transform="translate(1780, 12)">
                <path d="M12,0 C5.371875,0 0,5.371875 0,12 C0,18.628125 5.371875,24 12,24 C18.628125,24 24,18.628125 24,12 C24,5.371875 18.628125,0 12,0 Z M7.9125,21.675 C6.66328125,21.1453125 5.53828125,20.3882812 4.575,19.425 C3.609375,18.459375 2.85234375,17.3367187 2.325,16.0875 C1.7765625,14.79375 1.5,13.4179687 1.5,12 C1.5,11.3203125 1.56328125,10.65 1.68984375,9.99609375 C1.8421875,10.0546875 2.01328125,10.0875 2.1796875,10.0875 C2.40703125,10.0875 2.63203125,10.03125 2.81484375,9.909375 C3.00234375,9.78515625 3.2203125,9.71953125 3.4359375,9.71953125 C3.62109375,9.71953125 3.80625,9.76875 3.9703125,9.86953125 C4.16015625,9.98671875 4.29375,10.1414062 4.29375,10.4039062 C4.29375,12.3164062 4.359375,14.3578125 6.09609375,14.3859375 C6.14765625,14.3859375 7.06171875,14.7351562 7.49765625,15.8695312 C7.54921875,16.0007812 7.64765625,16.0429687 7.78359375,16.0429687 C8.053125,16.0429687 8.46328125,15.8695312 8.89921875,15.8695312 C9.225,15.8695312 8.89921875,16.4226562 8.89921875,17.615625 C8.9015625,18.796875 11.4609375,20.6273437 11.4609375,20.6273437 C11.446875,21.3773437 11.4820313,21.9984375 11.5382813,22.4882812 C10.284375,22.4367187 9.065625,22.1625 7.9125,21.675 Z M19.425,19.425 C18.459375,20.390625 17.3367187,21.1476563 16.0875,21.675 C15.515625,21.9164063 14.9296875,22.10625 14.3296875,22.2398438 C14.2945312,22.2328125 14.2546875,22.2304688 14.2125,22.2304688 C14.1304687,22.2304688 14.0367187,22.2421875 13.93125,22.2703125 C14.2945312,20.7351563 14.4679687,19.8703125 15.2179687,19.21875 C16.2492187,18.3234375 15.4453125,17.334375 14.6554687,17.334375 C14.6109375,17.334375 14.5640625,17.3367188 14.5195312,17.34375 C14.484375,17.3484375 14.4539062,17.3507813 14.4257812,17.3507813 C13.9054687,17.3507813 14.25,16.5328125 13.696875,16.4859375 C13.115625,16.4367188 12.3539062,15.28125 11.5078125,14.8804688 C11.0625,14.6695313 10.6289062,14.1023438 9.9375,14.071875 L9.89765625,14.071875 C9.46171875,14.071875 8.90625,14.3320313 8.62265625,14.3320313 C8.51015625,14.3320313 8.43984375,14.2898438 8.43984375,14.175 C8.43984375,12.8367188 8.3015625,11.8851563 8.28046875,11.5078125 C8.27109375,11.3789062 8.23359375,11.3414063 8.2546875,11.3414063 C8.2828125,11.3414063 8.4234375,11.4164062 8.90625,11.428125 L8.91796875,11.428125 C9.35390625,11.428125 9.1453125,10.5257812 9.5765625,10.490625 C9.5953125,10.4882812 9.6140625,10.4882812 9.6328125,10.4882812 C10.0171875,10.4882812 10.7460938,10.7648437 11.128125,10.7648437 C11.2078125,10.7648437 11.2710937,10.753125 11.3132812,10.725 C11.3179687,10.7226562 11.3226562,10.7203125 11.3296875,10.7203125 C11.5359375,10.7203125 12.346875,12.7429688 12.8015625,12.7429688 C12.9890625,12.7429688 13.115625,12.3984375 13.115625,11.4304687 C13.115625,11.0296875 12.9046875,10.33125 13.115625,9.946875 C13.9382812,8.4421875 14.7070312,7.21171875 14.6414062,7.03828125 C14.6203125,6.984375 14.3765625,6.93515625 14.0554687,6.93515625 C13.78125,6.93515625 13.453125,6.9703125 13.1578125,7.06640625 C12.9375,7.1390625 13.2234375,7.48125 12.91875,7.55390625 C12.7148437,7.60078125 12.515625,7.621875 12.328125,7.621875 C11.4328125,7.621875 10.7859375,7.14609375 11.0789062,6.6890625 C11.4515625,6.12890625 12.7851562,6.440625 12.9046875,5.315625 C12.9585937,4.7953125 13.0054687,4.209375 13.040625,3.71015625 C13.0523437,3.5296875 13.1976562,3.3890625 13.378125,3.37734375 C14.25,3.3140625 14.3390625,2.27578125 13.5234375,1.6125 C14.4023437,1.7390625 15.2601562,1.978125 16.0828125,2.32734375 C17.3320312,2.85703125 18.4570312,3.6140625 19.4203125,4.57734375 C20.296875,5.45390625 21,6.459375 21.5203125,7.57265625 C21.3867187,7.490625 21.2484375,7.45078125 21.1125,7.45078125 C20.4492188,7.45078125 19.8421875,8.35078125 20.221875,9.37265625 C17.1046875,11.7632813 17.9039062,13.4367188 18.9210937,14.3882813 C19.2210937,14.6695313 19.5164062,15.0304688 19.7742187,15.3890625 C20.0226562,15.73125 20.1773437,16.1273438 20.2664062,16.5421875 C20.2992187,16.6921875 20.4164062,16.7671875 20.5875,16.7671875 C20.8453125,16.7671875 21.2203125,16.5960938 21.5976562,16.2585938 C21.0773437,17.4375 20.3460938,18.5039063 19.425,19.425 L19.425,19.425 Z" id="形状"></path>
            </g>
        </g>
    </g>
</svg>